<svg xmlns="http://www.w3.org/2000/svg" viewBox="0 0 158.33 68.06">
		<g id="Sensor_ICN_L" fill="#b0b0b0" data-name="Layer 1">
			<path d="M67.89,32.05l-.06-1.56-.6-3.78A44.28,44.28,0,0,0,65.37,21,33.49,33.49,0,0,0,52.23,5.35,34,34,0,0,0,32.37,0l-3.6.36a49.44,49.44,0,0,0-7.32,2C11.88,6.32,5.9,12.9,2,22.51A44.13,44.13,0,0,0,.39,28.63L0,32v2a8.86,8.86,0,0,0,.06,2l.12,2c.35,1.5.49,3.08.9,4.44a46.89,46.89,0,0,0,1.68,5.1,33.4,33.4,0,0,0,16.68,17.1c.9.39,1.88.87,2.82,1.26a43.08,43.08,0,0,0,4.32,1.26l2.7.48,1,.06c.37.08.94.09,1.32.18h1.2a6.92,6.92,0,0,0,2.28.06l3.06-.24c2-.46,3.91-.6,5.7-1.2,10.18-3.39,17.38-9.94,21.48-19.38a51.05,51.05,0,0,0,2.22-7.86c.27-1.07,0-2.23.3-3.36A13.77,13.77,0,0,0,67.89,32.05ZM44.61,49.51H26.07v-32h2.76v29.7H44.61Z"/>
		</g>
		<g id="Sensor_ICN_R" fill="#52b6b4" data-name="Layer 2">
			<path d="M158.19,32.11l-.06-1.56c-.19-.83-.14-1.74-.36-2.58a47.44,47.44,0,0,0-2-6.66A33.46,33.46,0,0,0,144,6.37C138.58,2.53,132.17-.16,122.67,0l-3.6.36a48.56,48.56,0,0,0-7,1.86A34.55,34.55,0,0,0,92.49,21.85a50,50,0,0,0-1.8,6.78l-.36,3.3v1.62a7.65,7.65,0,0,0,.06,2.52l.12,2c.37,1.59.5,3.26,1,4.68.55,1.69.9,3.21,1.56,4.74a33.53,33.53,0,0,0,17.52,17.58c1.2.52,2.53,1.06,3.84,1.5s2.48.58,3.72.9l3.12.42H122a10.88,10.88,0,0,0,3.42.06h1.26c.74-.17,1.57-.06,2.34-.24A47.85,47.85,0,0,0,135.81,66c9.5-3.9,15.94-9.81,20-19.14a48.15,48.15,0,0,0,2.1-7.56c.27-1.09,0-2.27.3-3.42A12.94,12.94,0,0,0,158.19,32.11ZM133.77,50.53a6.41,6.41,0,0,1-.54-1c-.41-.75-.86-1.53-1.32-2.28-1.34-2.2-2.53-4.51-3.9-6.72-.43-.7-.81-1.45-1.26-2.16a4.42,4.42,0,0,1-.66-1.14h-9.3V50.53H114v-32h8.64a22.26,22.26,0,0,1,5.34.3,11.22,11.22,0,0,1,3.9,1.8,5.77,5.77,0,0,1,1.32,1.08,10.66,10.66,0,0,1,1.86,3.72,9.11,9.11,0,0,1-3.36,9.66,6.81,6.81,0,0,1-3,1.5,4.42,4.42,0,0,0,.66,1.14c.49.78.92,1.58,1.38,2.34,1.38,2.24,2.51,4.55,3.9,6.78.5.79.93,1.64,1.44,2.46.23.36.59.63.6,1.2Z"/>
			<path d="M132.57,28.75a4.8,4.8,0,0,0-.06-1.62L132.39,26a7.2,7.2,0,0,0-.9-2c-2.46-3.88-8.43-3.24-14.7-3.18v14h5.76c2.4,0,4.73.08,6.3-.72C131.07,33,132,31.5,132.57,28.75Z"/>
		</g>
</svg>