<svg xmlns="http://www.w3.org/2000/svg" viewBox="0 0 147.55 139.63">
	<g id="matrix_icn_frame_L" fill="#B0B0B0">
		<path d="M57.08.6a5.26,5.26,0,0,0-.84.06,1.78,1.78,0,0,0-.3,1.2h.9V2.4h-.9V6.06h-.72V2.4h-.66V1.86h.66c0-1.32.51-2.09,1.86-1.8Z"/>
		<path d="M65.84,3.84H64.52v-.6h2v2.1a3.48,3.48,0,0,1-1,.66c-2.57.84-4-1.61-3.3-4.08A2.34,2.34,0,0,1,65.72.6c.5.31.63.83.84,1.44h-.72a1.46,1.46,0,0,0-2.28-.9,3.38,3.38,0,0,0-.6,3,1.82,1.82,0,0,0,1.2,1.38,2.06,2.06,0,0,0,1.68-.36Z"/>
		<path d="M46.46.36h.72v5.1h2.7v.6H46.46Z"/>
		<path d="M57.92.84h.66v1h.78V2.4h-.78c0,.66-.12,2.95.24,3.12h.6v.54A3.29,3.29,0,0,1,58.28,6c-.52-.8-.37-2.28-.36-3.6h-.78V1.86h.72l.06-.06Z"/>
		<path d="M69.74,1.8v.66A1.36,1.36,0,0,0,68.42,3V6.06H67.7V1.86h.72v.42h.06C68.73,1.89,69.07,1.79,69.74,1.8Z"/>
		<path d="M74.84,1.86h.72c0,.88-.2,3.32.36,3.54a1.34,1.34,0,0,0,.84.12c.1-.09.17,0,.3-.12s.26-.35.42-.48V1.86h.66v4.2h-.66V5.64h-.06a1.68,1.68,0,0,1-2.34,0C74.6,4.92,74.82,3,74.84,1.86Z"/>
		<path d="M53,5.46a1.94,1.94,0,0,1-1,.06c-.28-.26-.6-.33-.72-.78a1.05,1.05,0,0,1-.12-.6H54A2.6,2.6,0,0,0,53.3,2a2,2,0,0,0-2.64.72A2.5,2.5,0,0,0,51.56,6c.79.34,2.07,0,2.28-.6,0-.06,0,0,.06-.12L53.54,5C53.39,5.05,53.22,5.36,53,5.46Zm-.3-3a1.08,1.08,0,0,1,.6,1.14,8,8,0,0,1-2.1-.06C50.92,3.23,52,1.86,52.7,2.46Z"/>
		<path d="M73.76,2.88c-.33-.8-1-1.11-2.22-1.08-.69.52-1.08.44-1.38,1.44-.43,1.45.66,3.27,2.22,2.88A2.32,2.32,0,0,0,73.76,2.88ZM72.44,5.46c-.24.17-.51.09-.84.06l-.48-.36a2.68,2.68,0,0,1-.18-2.1c.13-.29.42-.43.6-.66.13,0,.12,0,.18-.06a1.3,1.3,0,0,1,1.5,1.14A1.65,1.65,0,0,1,72.44,5.46Z"/>
		<path d="M81.8,1.86a1.61,1.61,0,0,0-1.74.42h-.12V1.86h-.66V7.68H80v-2c1.35.91,2.45.44,2.82-1.08A2.37,2.37,0,0,0,81.8,1.86Zm-.42,3.6a.75.75,0,0,1-.78,0c-.33-.06-.38-.26-.6-.42V2.88l.42-.42a.84.84,0,0,0,.42-.12l.54.06c.2.18.47.3.6.54C82.41,3.75,82.14,5.27,81.38,5.46Z"/>
		<path d="M34.76,4.44V5.52H20.12c-3.35,0-7-.11-9.6.72A16.09,16.09,0,0,0,5.48,9,8.3,8.3,0,0,0,4,10.68,14.07,14.07,0,0,0,2.12,14c-1.14,3.11-1,7.48-1,11.64V42.9c0,4.85-.26,10.09,1,13.8a14.41,14.41,0,0,0,2.4,4.14,8.31,8.31,0,0,0,1.68,1.5,14.82,14.82,0,0,0,3.3,2c3,1.22,8,1.08,12.18,1.08h86.82a21.44,21.44,0,0,0,4-.06c.64-.14,1.48.07,2-.06s1.23,0,1.74-.12c1-.22,1.85-.1,2.76-.36a12.71,12.71,0,0,0,8.94-7.68c1.12-2.74,1.08-6.6,1.08-10.38V24.6a19.32,19.32,0,0,0-.06-3.66l-.06-2.22c-.36-1.67-.32-3.36-.9-4.8a13,13,0,0,0-7.38-7.38c-2.63-1.07-6.61-1-10.26-1H94.82V4.44h10.8c5.18,0,11.32-.39,15.18,1a13.72,13.72,0,0,1,7.92,7.38,29.24,29.24,0,0,1,1.2,5.22c.22,1-.1,2.15.12,3.18a16.52,16.52,0,0,1,.06,3v5.82h12.48a2.51,2.51,0,1,1,4.74,1.5A2.64,2.64,0,0,1,144.56,33a2.87,2.87,0,0,1-1.68-1.14c-.07-.1-.25-.81-.3-.84H130.1V44.4c0,3.86.2,8-.66,11.1a15.81,15.81,0,0,1-.42,1.8,16.73,16.73,0,0,1-2.28,3.84,7.7,7.7,0,0,1-1.44,1.62,17.1,17.1,0,0,1-5.46,2.94c-1.14.37-2.42.33-3.66.6-.61.14-1.3,0-1.86.12h-2.58a29.68,29.68,0,0,1-4.92.06H20.18a9.58,9.58,0,0,1-1.8-.06H15.86c-.58-.12-1.29,0-1.92-.12-1.39-.3-2.81-.31-4.08-.72A16,16,0,0,1,5.12,63a10.37,10.37,0,0,1-2-2.28,14.72,14.72,0,0,1-2-3.48C-.2,53.7,0,48.27,0,43.5v-16c0-4.35-.23-9.72.84-13.08A15.61,15.61,0,0,1,3.14,10,13.32,13.32,0,0,1,9.56,5.4c3-1,6.9-1,10.86-1Z"/>
		<path d="M65.36,11.52h.72v.72h-.72Z"/>
		<path d="M65.36,13.74h.72v.72h-.72Z"/>
		<path d="M65.36,16h.72v.72h-.72Z"/>
		<path d="M65.36,18.24h.72V19h-.72Z"/>
		<path d="M65.36,20.52h.72v.72h-.72Z"/>
		<path d="M65.36,22.74h.72v.72h-.72Z"/>
		<path d="M65.36,25h.72v.72h-.72Z"/>
		<path d="M65.36,27.24h.72V28h-.72Z"/>
		<path d="M65.36,29.52h.72v.72h-.72Z"/>
		<path d="M65.36,31.74h.72v.72h-.72Z"/>
		<path d="M65.36,34h.72v.72h-.72Z"/>
		<path d="M65.36,36.24h.72V37h-.72Z"/>
		<path d="M65.36,38.52h.72v.72h-.72Z"/>
		<path d="M65.36,40.74h.72v.72h-.72Z"/>
		<path d="M65.36,43h.72v.72h-.72Z"/>
		<path d="M65.36,45.24h.72V46h-.72Z"/>
		<path d="M65.36,47.52h.72v.72h-.72Z"/>
		<path d="M65.36,49.74h.72v.72h-.72Z"/>
		<path d="M65.36,52h.72v.72h-.72Z"/>
		<path d="M65.36,54.24h.72V55h-.72Z"/>
		<path d="M65.36,56.52h.72v.72h-.72Z"/>
		<path d="M65.36,58.74h.72v.72h-.72Z"/>
	</g> 
	<g id="matrix_icn_frame_R" fill="#52b6b4">
		<path d="M55.64,73.08h.72v2.28h.06a1.81,1.81,0,0,1,2-.42l.42.48c.32.72.13,2.68.12,3.66h-.66a15.39,15.39,0,0,0-.18-3.48c-.9-.45-1.18-.12-1.74.42v3.06h-.72Z"/>
		<path d="M49.52,73.32a.62.62,0,0,1,.42.12c.12.13.12.23.12.48a.87.87,0,0,1-.66.18.61.61,0,0,1-.12-.36C49.25,73.56,49.37,73.48,49.52,73.32Z"/>
		<path d="M68.24,76.86H66.92v-.6h2v2.1A3.48,3.48,0,0,1,68,79c-2.57.84-4-1.61-3.3-4.08a2.34,2.34,0,0,1,3.42-1.32c.5.31.63.83.84,1.44h-.72a1.46,1.46,0,0,0-2.28-.9,3.38,3.38,0,0,0-.6,3,1.82,1.82,0,0,0,1.2,1.38,2.06,2.06,0,0,0,1.68-.36Z"/>
		<path d="M60.38,73.86H61v1h.78v.54H61c0,.66-.12,3,.24,3.12h.6v.54A3.29,3.29,0,0,1,60.74,79c-.52-.8-.37-2.28-.36-3.6H59.6v-.54h.72l.06-.06Z"/>
		<path d="M47.24,76.74c.14-.43.78-.55,1-1a2.14,2.14,0,0,0-.06-1.26c-.46-1.22-2-1.11-3.72-1.08v5.7h.72a9,9,0,0,1,.06-2.34h1.32c.15.1.21.49.3.66a7.33,7.33,0,0,1,.9,1.68h.78A11.22,11.22,0,0,0,47.24,76.74Zm-.78-.54a4.71,4.71,0,0,1-1.32-.06A8.54,8.54,0,0,1,45.2,74a3.19,3.19,0,0,1,2.22.48,1.43,1.43,0,0,1-.24,1.5A3.21,3.21,0,0,0,46.46,76.2Z"/>
		<path d="M72.14,74.82v.66a1.36,1.36,0,0,0-1.32.54v3.06H70.1v-4.2h.72v.42h.06C71.13,74.91,71.47,74.81,72.14,74.82Z"/>
		<path d="M49.28,74.88H50v4.2h-.72Z"/>
		<path d="M77.3,74.88H78c0,.88-.2,3.32.36,3.54a1.34,1.34,0,0,0,.84.12c.1-.09.17,0,.3-.12s.26-.35.42-.48V74.88h.66v4.2h-.66v-.42h-.06a1.68,1.68,0,0,1-2.34,0C77.06,77.94,77.28,76,77.3,74.88Z"/>
		<path d="M54.62,74.88H54a.6.6,0,0,1-.06.36c0,.1-.42-.31-.54-.36a2.22,2.22,0,0,0-1.5.12c-1.06.71-1.13,3.67.3,4a1.44,1.44,0,0,0,1.68-.36h.06A1.82,1.82,0,0,1,53.42,80a1.51,1.51,0,0,1-1.74-.42h-.12a.76.76,0,0,1-.3.36c.48.74,2.27,1.07,2.94.24S54.66,76.4,54.62,74.88Zm-.72,3.06c-.21.21-.44.4-.66.6a1.43,1.43,0,0,1-.84-.12c-.95-.31-.85-2.65.06-2.94,0,0,.19-.08.24-.12l.6.06a6,6,0,0,0,.6.54Z"/>
		<path d="M76.22,75.9c-.33-.8-1-1.11-2.22-1.08-.69.52-1.08.44-1.38,1.44-.43,1.45.66,3.27,2.22,2.88A2.32,2.32,0,0,0,76.22,75.9ZM74.9,78.48c-.24.17-.51.09-.84.06l-.48-.36a2.68,2.68,0,0,1-.18-2.1c.13-.29.42-.43.6-.66.13,0,.12,0,.18-.06a1.3,1.3,0,0,1,1.5,1.14A1.65,1.65,0,0,1,74.9,78.48Z"/>
		<path d="M84.26,74.88a1.61,1.61,0,0,0-1.74.42H82.4v-.42h-.66V80.7h.72v-2c1.35.91,2.45.44,2.82-1.08A2.37,2.37,0,0,0,84.26,74.88Zm-.42,3.6a.75.75,0,0,1-.78,0c-.33-.06-.38-.26-.6-.42V75.9l.42-.42a.84.84,0,0,0,.42-.12l.54.06c.2.18.47.3.6.54C84.87,76.77,84.6,78.29,83.84,78.48Z"/>
		<path d="M34.76,77.58v1.08H20.42c-3.8,0-7.6,0-10.5.9a14.69,14.69,0,0,0-4.08,2.28,8.3,8.3,0,0,0-1.56,1.68,14.45,14.45,0,0,0-2.34,4.2C.87,91,1.1,95.92,1.1,100.2V117c0,4.45-.22,9.24.9,12.66a14.62,14.62,0,0,0,2.34,4.2,12.94,12.94,0,0,0,5.82,3.84c1.34.44,2.83.4,4.32.72l2.58.06a9.58,9.58,0,0,0,1.8.06H108.5a25.54,25.54,0,0,0,4.56-.06h1.2a10.2,10.2,0,0,0,2.1-.18c.86-.19,1.61-.08,2.4-.3,4.53-1.24,7.52-3.66,9.18-7.74,1.12-2.74,1.08-6.6,1.08-10.38V97.8a19.94,19.94,0,0,0-.06-3.72l-.06-2.22c-.39-1.81-.38-3.58-1-5.1A12.62,12.62,0,0,0,120,79.5c-2.85-.92-6.61-.84-10.32-.84H94.82V77.58h10.8c5.2,0,10.95-.35,14.94,1a13.62,13.62,0,0,1,8.28,7.74c.73,1.71.7,3.61,1.14,5.64l.06,2.52a15.86,15.86,0,0,1,.06,2.94v5.82h12.48a2.51,2.51,0,1,1,4.8,1.38,2.52,2.52,0,0,1-2.88,1.56,2.8,2.8,0,0,1-1.62-1.14c-.11-.17-.14-.72-.3-.84H130.1v13.32c0,4.44.2,9.78-1.08,13a16.14,16.14,0,0,1-2.22,3.78,8.37,8.37,0,0,1-1.56,1.74,16.11,16.11,0,0,1-4.92,2.76c-1.46.48-3.1.43-4.74.78l-3,.06a10.88,10.88,0,0,1-1.92.06H19.34a9.58,9.58,0,0,1-1.8-.06H15.62c-.54-.12-1.2,0-1.8-.12-1.28-.28-2.59-.28-3.78-.66a17.43,17.43,0,0,1-5.34-3,9.18,9.18,0,0,1-1.68-2,13.72,13.72,0,0,1-2-3.6c-1.15-3.46-1-8.24-1-12.78V99.48C0,92.59.06,87.38,3,83.34A13.53,13.53,0,0,1,9.38,78.6c3.08-1,7.09-1,11.16-1Z"/>
		<path d="M64.7,84.66h.72v.72H64.7Z"/>
		<path d="M64.7,86.88h.72v.78H64.7Z"/>
		<path d="M64.7,89.16h.72v.72H64.7Z"/>
		<path d="M64.7,91.38h.72v.78H64.7Z"/>
		<path d="M64.7,93.66h.72v.72H64.7Z"/>
		<path d="M64.7,95.88h.72v.78H64.7Z"/>
		<path d="M64.7,98.16h.72v.72H64.7Z"/>
		<path d="M64.7,100.38h.72v.78H64.7Z"/>
		<path d="M64.7,102.66h.72v.72H64.7Z"/>
		<path d="M64.7,104.88h.72v.78H64.7Z"/>
		<path d="M64.7,107.16h.72v.72H64.7Z"/>
		<path d="M64.7,109.38h.72v.78H64.7Z"/>
		<path d="M64.7,111.66h.72v.72H64.7Z"/>
		<path d="M64.7,113.88h.72v.78H64.7Z"/>
		<path d="M64.7,116.16h.72v.72H64.7Z"/>
		<path d="M64.7,118.38h.72v.78H64.7Z"/>
		<path d="M64.7,120.66h.72v.72H64.7Z"/>
		<path d="M64.7,122.88h.72v.78H64.7Z"/>
		<path d="M64.7,125.16h.72v.72H64.7Z"/>
		<path d="M64.7,127.38h.72v.78H64.7Z"/>
		<path d="M64.7,129.66h.72v.72H64.7Z"/>
		<path d="M64.7,131.88h.72v.78H64.7Z"/>
	</g>
	<g id="matrix_dot_LL1" fill="#56BCDD"><path class="cls-2" d="M17.3,11.76c5.14-.06,8.1,2.48,9.6,6.06a9.39,9.39,0,0,1,.6,5.4,14.31,14.31,0,0,1-.66,2.16,9.84,9.84,0,0,1-6.18,5.4c-.65.21-1.4.21-2.1.36-1.41.31-3.59-.47-4.44-.84A9.41,9.41,0,0,1,8.6,23.82,8.79,8.79,0,0,1,8.36,20l.42-1.74a10.08,10.08,0,0,1,5.28-5.7,15.46,15.46,0,0,1,2.22-.66C16.61,11.8,17.05,11.92,17.3,11.76Z"/></g>
	<g id="matrix_dot_LL2" fill="#B0B0B0"><path class="cls-3" d="M45.26,11.76a11,11,0,0,1,3.42.36,9.65,9.65,0,0,1,6.54,6.66,8.94,8.94,0,0,1,.3,4.32,12.73,12.73,0,0,1-.66,2.22,9.78,9.78,0,0,1-6,5.4,22.7,22.7,0,0,1-2.34.42,8.72,8.72,0,0,1-4.26-.78,9.38,9.38,0,0,1-5.64-6.42,8.32,8.32,0,0,1-.3-3.78A14.83,14.83,0,0,1,36.86,18a10,10,0,0,1,5.34-5.52l1.74-.54C44.34,11.84,44.93,12,45.26,11.76Z"/></g>
	<g id="matrix_dot_LR1" fill="#56BCDD"><path class="cls-4" d="M83.36,11.76c5.17-.06,8.09,2.51,9.6,6.12a9.59,9.59,0,0,1,.54,5.58,13.68,13.68,0,0,1-.72,2.16,9.67,9.67,0,0,1-5.88,5.1,22.7,22.7,0,0,1-2.34.42,8.39,8.39,0,0,1-4.26-.78,9.37,9.37,0,0,1-5.64-6.48,8.78,8.78,0,0,1-.24-4,12.14,12.14,0,0,1,.42-1.68,10.09,10.09,0,0,1,5.4-5.7,15.45,15.45,0,0,1,2.1-.6C82.65,11.81,83.12,11.91,83.36,11.76Z"/></g>
	<g id="matrix_dot_LR2" fill="#B0B0B0"><path class="cls-5" d="M111.32,11.76c5-.08,8,2.35,9.48,5.76a9.64,9.64,0,0,1,.72,5.82,15.58,15.58,0,0,1-.72,2.22,9.84,9.84,0,0,1-6.12,5.22,19.55,19.55,0,0,1-2.1.36c-1.45.33-3.69-.52-4.56-.9a9.37,9.37,0,0,1-5.4-6.48,8.55,8.55,0,0,1-.24-3.72,13.48,13.48,0,0,1,.48-1.92,10.11,10.11,0,0,1,5.52-5.7l1.92-.54C110.63,11.8,111.07,11.92,111.32,11.76Z"/></g>
	<g id="matrix_dot_LL1" fill="#3A60AE"><path class="cls-6" d="M16.94,39.78c5.27-.06,8.29,2.15,9.84,5.76a9.54,9.54,0,0,1,.72,5.7,14.46,14.46,0,0,1-.72,2.28,9.92,9.92,0,0,1-5.64,5.1,13.84,13.84,0,0,1-2.22.48,9,9,0,0,1-4.44-.66A9.45,9.45,0,0,1,8.66,52a8.89,8.89,0,0,1-.3-4.08,12.68,12.68,0,0,1,.48-1.86A9.92,9.92,0,0,1,14,40.56a14.42,14.42,0,0,1,1.86-.6C16.2,39.87,16.67,40,16.94,39.78Z"/></g>
	<g id="matrix_dot_LL2" fill="#56BCDD"><path class="cls-7" d="M45,39.78c5.47-.06,8.38,2.32,10,6.12a9.47,9.47,0,0,1,.54,5.52,13.51,13.51,0,0,1-.66,2,9.81,9.81,0,0,1-5.34,5,14.74,14.74,0,0,1-2.52.6H46a8.89,8.89,0,0,1-3.66-.72,9.47,9.47,0,0,1-5.7-6.48,8.74,8.74,0,0,1-.24-4.14l.54-1.92a10,10,0,0,1,5.22-5.34L43.82,40C44.18,39.87,44.68,40,45,39.78Z"/></g>
	<g id="matrix_dot_LR1" fill="#FF9F79"><path class="cls-8" d="M83,39.78a12.46,12.46,0,0,1,3.12.18,9.67,9.67,0,0,1,7.14,6.78,8.82,8.82,0,0,1,.3,4.38,13.66,13.66,0,0,1-.66,2.22,9.86,9.86,0,0,1-5.4,5.16,14.52,14.52,0,0,1-2.52.6H84a8.93,8.93,0,0,1-3.66-.72,9.41,9.41,0,0,1-5.7-6.48,8.77,8.77,0,0,1-.24-4.08A15.36,15.36,0,0,1,74.9,46a10,10,0,0,1,5.28-5.52,15.68,15.68,0,0,1,2-.6C82.45,39.83,82.79,39.92,83,39.78Z"/></g>
	<g id="matrix_dot_LR2" fill="#B0B0B0"><path class="cls-9" d="M111,39.78a12,12,0,0,1,3.42.24,9.71,9.71,0,0,1,6.78,6.42,9.13,9.13,0,0,1,.36,4.86,12.63,12.63,0,0,1-.6,2,10,10,0,0,1-5.58,5.28,14,14,0,0,1-2.34.54h-1a9.69,9.69,0,0,1-9.48-7.62,8.33,8.33,0,0,1-.18-3.48,15.73,15.73,0,0,1,.6-2.22,9.85,9.85,0,0,1,4.92-5.16,16.41,16.41,0,0,1,2-.66C110.23,39.87,110.69,40,111,39.78Z"/>
	<g id="matrix_dot_RL1" fill="#B0B0B0"><path class="cls-10" d="M17.36,85.44c5.09-.06,8.05,2.51,9.54,6.06a10.32,10.32,0,0,1,0,7.44,9.91,9.91,0,0,1-6.24,5.52c-.65.21-1.39.21-2.1.36-1.42.31-3.59-.47-4.44-.84a9.26,9.26,0,0,1-5.4-6.06,9,9,0,0,1-.36-4.26l.42-1.74a10.15,10.15,0,0,1,5.58-5.82l2-.54C16.65,85.49,17.12,85.59,17.36,85.44Z"/></g>
	<g id="matrix_dot_RL2" fill="#FF9F79"><path class="cls-11" d="M45.32,85.44a10.22,10.22,0,0,1,3.12.3,9.69,9.69,0,0,1,6.78,6.72,8.94,8.94,0,0,1,.3,4.32A12.73,12.73,0,0,1,54.86,99a9.78,9.78,0,0,1-6,5.4,22,22,0,0,1-2.28.42,9,9,0,0,1-4.74-1,9.53,9.53,0,0,1-5.22-6.24,8.32,8.32,0,0,1-.3-3.78,16.24,16.24,0,0,1,.54-2.16,10,10,0,0,1,5.34-5.52,15.45,15.45,0,0,1,2.1-.6C44.63,85.48,45.07,85.6,45.32,85.44Z"/></g>
	<g id="matrix_dot_RR1" fill="#56BCDD"><path class="cls-12" d="M83.36,85.44c5.17-.06,8.09,2.51,9.6,6.12a9.25,9.25,0,0,1,.6,5.28,14.43,14.43,0,0,1-.78,2.46,9.76,9.76,0,0,1-6.06,5.16c-.65.21-1.4.21-2.1.36A8.83,8.83,0,0,1,80.3,104a9.37,9.37,0,0,1-5.64-6.48,8.78,8.78,0,0,1-.24-4l.54-2a10,10,0,0,1,5.46-5.46,14.66,14.66,0,0,1,1.92-.54C82.67,85.48,83.11,85.6,83.36,85.44Z"/></g>
	<g id="matrix_dot_RR2" fill="#B0B0B0"><path class="cls-13" d="M111.38,85.44A9.47,9.47,0,0,1,121,91.8a9.2,9.2,0,0,1,.48,5.22,15.58,15.58,0,0,1-.72,2.22,9.82,9.82,0,0,1-6.12,5.22,19.13,19.13,0,0,1-2.1.36c-1.4.31-3.59-.48-4.44-.84a9.36,9.36,0,0,1-5.52-6.54,8.55,8.55,0,0,1-.24-3.72,13.48,13.48,0,0,1,.48-1.92,10,10,0,0,1,5.1-5.52,17.35,17.35,0,0,1,2-.66C110.41,85.51,111,85.65,111.38,85.44Z"/></g>
	<g id="matrix_dot_RL1" fill="#56BCDD"><path class="cls-14" d="M17,113.46c5.22-.06,8.24,2.18,9.78,5.76a9.46,9.46,0,0,1,.72,5.7,14.46,14.46,0,0,1-.72,2.28,9.9,9.9,0,0,1-5.46,5,14,14,0,0,1-2.34.54H18a8.73,8.73,0,0,1-3.54-.66,9.43,9.43,0,0,1-5.82-6.42,8.89,8.89,0,0,1-.3-4.08,12.68,12.68,0,0,1,.48-1.86,9.9,9.9,0,0,1,5-5.46,15.85,15.85,0,0,1,2-.66C16.22,113.55,16.72,113.64,17,113.46Z"/></g>
	<g id="matrix_dot_RL2" fill="#B0B0B0"><path class="cls-15" d="M45,113.46c5.47-.06,8.38,2.33,10,6.12a9.47,9.47,0,0,1,.54,5.52,13.51,13.51,0,0,1-.66,2,9.81,9.81,0,0,1-5.34,5,14.52,14.52,0,0,1-2.52.6H46a8.45,8.45,0,0,1-4-.84,9.34,9.34,0,0,1-5.4-6.36,8.74,8.74,0,0,1-.24-4.14l.54-1.92a10,10,0,0,1,5.22-5.34,15.68,15.68,0,0,1,2-.6C44.41,113.51,44.75,113.6,45,113.46Z"/></g>
	<g id="matrix_dot_RR1" fill="#9E3200"><path class="cls-16" d="M83,113.46a12.69,12.69,0,0,1,3.36.24,9.59,9.59,0,0,1,6.9,6.72,8.82,8.82,0,0,1,.3,4.38A13.66,13.66,0,0,1,92.9,127a9.83,9.83,0,0,1-5.7,5.28,15.3,15.3,0,0,1-2.22.48H84a8.89,8.89,0,0,1-3.66-.72,9.41,9.41,0,0,1-5.7-6.48,8.77,8.77,0,0,1-.24-4.08,15.91,15.91,0,0,1,.48-1.8,10,10,0,0,1,5.16-5.46,16,16,0,0,1,2.1-.66C82.45,113.51,82.79,113.6,83,113.46Z"/></g>
	<g id="matrix_dot_RR2" fill="#FF9F79"><path class="cls-17" d="M111,113.46a12,12,0,0,1,3.06.18,9.71,9.71,0,0,1,7.08,6.48,9.13,9.13,0,0,1,.36,4.86,12.63,12.63,0,0,1-.6,2,9.93,9.93,0,0,1-5.4,5.22,14.52,14.52,0,0,1-2.52.6h-1a9.29,9.29,0,0,1-4-.84,9.44,9.44,0,0,1-5.34-6.06,8.31,8.31,0,0,1-.36-4.14,15.37,15.37,0,0,1,.54-2.1,9.91,9.91,0,0,1,5-5.34l2-.66C110.24,113.54,110.74,113.64,111,113.46Z"/></g>
	</g>
</svg>